<svg width="24" height="27" viewBox="0 0 24 27" fill="none" xmlns="http://www.w3.org/2000/svg">
<path d="M11.3416 21.598C12.9172 21.5987 14.4744 21.2672 15.9074 20.626L19.9536 26.2369C20.332 26.7626 20.9687 27.0507 21.623 26.9926C22.2776 26.9346 22.8507 26.5391 23.1265 25.9553C23.4023 25.3719 23.3391 24.6882 22.9603 24.1626L18.9558 18.6057C21.4469 16.2759 22.6827 12.9408 22.2968 9.58982C21.9109 6.23873 19.9478 3.25677 16.9891 1.52767C14.0307 -0.201426 10.4168 -0.478869 7.21935 0.77786C4.02176 2.03459 1.60729 4.6807 0.692632 7.93199C-0.222432 11.183 0.467162 14.6659 2.55667 17.3472C4.64617 20.0285 7.89573 21.6009 11.3419 21.5978L11.3416 21.598ZM11.3416 3.6C13.2929 3.6 15.164 4.35829 16.5437 5.7085C17.9231 7.05875 18.6983 8.88981 18.6983 10.799C18.6983 12.7085 17.9231 14.5396 16.5437 15.8898C15.1639 17.2397 13.2928 17.9983 11.3416 17.9983C9.39057 17.9983 7.51948 17.2397 6.13978 15.8898C4.76 14.5395 3.98517 12.7084 3.98517 10.799C3.98517 8.88973 4.76004 7.05867 6.13978 5.7085C7.51956 4.35825 9.39066 3.6 11.3416 3.6Z" fill="white"/>
</svg>
